<svg width="77" height="70" viewBox="0 0 77 70" fill="none" xmlns="http://www.w3.org/2000/svg">
<path d="M55.534 30.2915C58.4847 30.2915 61.3144 29.2078 63.4007 27.2773M55.534 30.2915C52.5832 30.2915 49.7535 29.2078 47.6673 27.2773M55.534 30.2915V38.0061M63.4007 27.2773C65.487 25.3486 66.6588 22.731 66.6588 20.0022M63.4007 27.2773L69.3002 32.7332M47.6673 27.2773C45.581 25.3486 44.4073 22.731 44.4073 20.0022M47.6673 27.2773L41.7677 32.7332M66.6588 20.0022C66.6588 17.2733 65.487 14.6575 63.4007 12.727M66.6588 20.0022H75M63.4007 12.727C61.3144 10.7984 58.4847 9.71468 55.534 9.71468C52.5832 9.71468 49.7535 10.7984 47.6673 12.727M63.4007 12.727L69.3002 7.27471M47.6673 12.727C45.581 14.6575 44.4073 17.2733 44.4073 20.0022M47.6673 12.727L41.7677 7.27471M44.4073 20.0022H36.066M53.6802 2H57.3859M55.534 2V9.71649M67.9882 6.0619L70.6104 8.48752M75 18.2888V21.7191M70.6104 31.5222L67.9882 33.9461M57.3859 38.0061H53.6802M43.0779 33.9461L40.4556 31.5222M36.066 21.7191V18.2888M40.4556 8.48752L43.0779 6.0619M31.2 31.4953H26.334C25.043 31.4953 23.8039 31.969 22.8914 32.8122C21.9789 33.6572 21.466 34.8019 21.466 35.9949M21.466 35.9949V56.3546M21.466 35.9949H11.7339C9.15205 35.9949 6.67586 36.944 4.85086 38.6323C3.02586 40.3206 2 42.6099 2 44.9978V58.4986C2 59.6934 2.51293 60.8381 3.42543 61.6814C4.33793 62.5264 5.57506 63 6.86601 63H14.287M57.8431 63H60.4C61.6909 63 62.9281 62.5264 63.8406 61.6814C64.7531 60.8381 65.2661 59.6934 65.2661 58.4986V44.0075" stroke="#4B5563" stroke-width="4" stroke-linecap="round" stroke-linejoin="round"/>
<path d="M26.0996 63.3378H45.7232M2 49.6666H21.3777M20.1674 68C21.7734 68 23.3122 67.3858 24.4475 66.2931C25.5848 65.2005 26.2226 63.7173 26.2226 62.1718C26.2226 60.6282 25.5848 59.145 24.4475 58.0523C23.3122 56.9596 21.7734 56.3455 20.1674 56.3455C18.5614 56.3455 17.0207 56.9596 15.8854 58.0523C14.7481 59.145 14.1103 60.6282 14.1103 62.1718C14.1103 63.7173 14.7481 65.2005 15.8854 66.2931C17.0207 67.3858 18.5614 68 20.1674 68ZM51.6554 68C53.2614 68 54.802 67.3858 55.9374 66.2931C57.0727 65.2005 57.7105 63.7173 57.7105 62.1718C57.7105 60.6282 57.0727 59.145 55.9374 58.0523C54.802 56.9596 53.2614 56.3455 51.6554 56.3455C50.0494 56.3455 48.5087 56.9596 47.3733 58.0523C46.238 59.145 45.6002 60.6282 45.6002 62.1718C45.6002 63.7173 46.238 65.2005 47.3733 66.2931C48.5087 67.3858 50.0494 68 51.6554 68Z" stroke="#4B5563" stroke-width="4" stroke-linecap="round" stroke-linejoin="round"/>
</svg>
