<svg width="74" height="66" viewBox="0 0 74 66" fill="none" xmlns="http://www.w3.org/2000/svg">
<path d="M17.7173 35.1147H3.94348C3.39509 35.1147 2.86985 34.8928 2.4817 34.4978C2.09534 34.1029 1.87811 33.5672 1.87811 33.0087C1.87811 32.4501 2.09534 31.9146 2.4817 31.5194C2.86985 31.1245 3.39509 30.9026 3.94348 30.9026H16.6152L21.5044 23.4264C21.6931 23.1367 21.9495 22.8993 22.2487 22.7348C22.5496 22.5706 22.8861 22.4846 23.2262 22.4846C23.568 22.4846 23.9027 22.5706 24.2036 22.7348C24.5045 22.8993 24.7592 23.1367 24.9479 23.4264L34.2456 37.6419L38.0327 31.8503C38.2214 31.5598 38.476 31.3209 38.7769 31.1556C39.0778 30.9902 39.4126 30.9033 39.7544 30.9026H48.0194C48.566 30.9026 49.0931 31.1245 49.4794 31.5194C49.8676 31.9146 50.0848 32.4501 50.0848 33.0087C50.0848 33.5672 49.8676 34.1029 49.4794 34.4978C49.0931 34.8928 48.566 35.1147 48.0194 35.1147H40.8565L35.9673 42.5909C35.7786 42.8806 35.5222 43.1181 35.2231 43.2824C34.9222 43.4467 34.5857 43.5327 34.2456 43.5327C33.9037 43.5327 33.569 43.4467 33.2681 43.2824C32.9672 43.1181 32.7126 42.8806 32.5238 42.5909L23.2262 28.3755L19.439 34.1669C19.2503 34.4577 18.9957 34.6964 18.6948 34.8617C18.3939 35.0271 18.0592 35.114 17.7173 35.1147ZM53.5283 0.014791C50.2682 0.0131856 47.058 0.824804 44.1772 2.37884C41.2963 3.93287 38.8321 6.18205 37 8.93015C34.6017 5.32476 31.1297 2.59878 27.0987 1.1532C23.0659 -0.2922 18.6859 -0.38121 14.6015 0.899368C10.5152 2.18013 6.94181 4.76287 4.40284 8.26818C1.86564 11.7733 0.496446 16.016 0.500007 20.3728C0.500007 20.8642 0.500002 21.3906 0.533831 21.882C0.569441 22.4439 0.820499 22.9689 1.23357 23.3433C1.64665 23.7177 2.18614 23.9116 2.73809 23.8827C3.00872 23.8693 3.27223 23.8012 3.51615 23.6822C3.76008 23.5634 3.97907 23.3961 4.1589 23.1901C4.33694 22.9842 4.47583 22.7438 4.56308 22.483C4.65032 22.2222 4.68593 21.9462 4.66634 21.6714C4.63251 21.2151 4.63252 20.7939 4.63252 20.3728C4.62361 16.6341 5.88953 13.0086 8.21129 10.1148C10.533 7.22092 13.7682 5.23825 17.3648 4.50511C20.9614 3.77198 24.6968 4.33369 27.932 6.09446C31.1671 7.85523 33.7025 10.7059 35.1056 14.16C35.2551 14.5492 35.5151 14.8837 35.8534 15.1195C36.1899 15.3553 36.5905 15.4814 37 15.4814C37.4095 15.4814 37.8101 15.3553 38.1466 15.1195C38.4849 14.8837 38.7449 14.5492 38.8944 14.16C40.2975 10.7059 42.8329 7.85523 46.068 6.09446C49.3032 4.33369 53.0386 3.77198 56.6352 4.50511C60.2318 5.23825 63.467 7.22092 65.7887 10.1148C68.1105 13.0086 69.3764 16.6341 69.3675 20.3728C69.3675 40.4849 42.5783 58.0349 37 61.4396C33.6936 59.4037 22.8825 52.4188 14.6869 42.8718C14.5089 42.661 14.2917 42.4883 14.0477 42.3634C13.8038 42.2387 13.5385 42.1644 13.2661 42.1447C12.9937 42.1253 12.7213 42.1608 12.4631 42.2495C12.2031 42.3381 11.9646 42.478 11.7598 42.6611C11.3503 43.0325 11.0992 43.5525 11.0601 44.1099C11.0227 44.6674 11.1989 45.2182 11.5533 45.6447C21.8142 57.5786 35.4154 65.4058 36.0011 65.7217C36.3038 65.9039 36.6493 66 37 66C37.3508 66 37.6962 65.9039 37.9989 65.7217C44.2769 61.9801 50.172 57.6059 55.5936 52.6646C67.4748 41.7486 73.5 30.9026 73.5 20.3728C73.5 14.9734 71.3955 9.79546 67.6511 5.97762C63.9049 2.15979 58.8252 0.014791 53.5283 0.014791Z" fill="#4B5563"/>
</svg>
