<svg width="74" height="66" viewBox="0 0 74 66" fill="none" xmlns="http://www.w3.org/2000/svg">
<path d="M73.5 6.1913C73.5 8.75007 71.7674 10.9788 69.305 11.8876V66H0.5L19.7417 38.2216C19.1234 37.2697 18.793 36.1883 18.7843 35.0841C18.7843 31.6597 21.839 28.8928 25.6238 28.8928C29.4083 28.8928 32.4631 31.6597 32.4631 35.0841C32.4631 35.6222 32.3721 36.1172 32.2351 36.6122L38.8011 39.2116C40.0323 37.9729 41.8559 37.1479 43.8623 37.1479C44.683 37.1479 45.4582 37.3128 46.1876 37.5185L62.5112 11.0626C60.8699 9.94824 59.8209 8.17383 59.8209 6.1913C59.8209 2.76437 62.876 0 66.6605 0C67.5269 0 68.3021 0.164986 69.077 0.413755L69.305 0.0406318V0.495019C71.7674 1.40379 73.5 3.63253 73.5 6.1913ZM64.7453 61.8724V15.8908L49.7441 40.2016C50.3371 41.151 50.7018 42.1842 50.7018 43.3391C50.7018 46.7661 47.6468 49.5304 43.8623 49.5304C40.0778 49.5304 37.0227 46.7661 37.0227 43.3391L37.0685 43.0498L29.6363 40.0798C28.4963 40.821 27.1284 41.2754 25.6238 41.2754C24.8028 41.2754 24.0279 41.1104 23.2982 40.8642L8.70744 61.8724H64.7453Z" fill="#4B5563"/>
</svg>
