<svg width="25" height="25" viewBox="0 0 25 25" fill="none" xmlns="http://www.w3.org/2000/svg">
<path d="M20.3747 4.71118H4.62466C3.9287 4.71192 3.26145 4.98872 2.76933 5.48084C2.27721 5.97297 2.00041 6.64021 1.99966 7.33618V18.5862C2.00041 19.2821 2.27721 19.9494 2.76933 20.4415C3.26145 20.9336 3.9287 21.2104 4.62466 21.2112H20.3747C21.0706 21.2104 21.7379 20.9336 22.23 20.4415C22.7221 19.9494 22.9989 19.2821 22.9997 18.5862V7.33618C22.9989 6.64021 22.7221 5.97297 22.23 5.48084C21.7379 4.98872 21.0706 4.71192 20.3747 4.71118ZM19.71 9.05321L12.96 14.3032C12.8284 14.4055 12.6664 14.4611 12.4997 14.4611C12.3329 14.4611 12.171 14.4055 12.0394 14.3032L5.28935 9.05321C5.21005 8.99332 5.14343 8.91827 5.09338 8.83241C5.04334 8.74655 5.01085 8.6516 4.99781 8.55308C4.98478 8.45456 4.99145 8.35443 5.01745 8.25851C5.04344 8.16259 5.08824 8.0728 5.14924 7.99434C5.21024 7.91589 5.28623 7.85034 5.37278 7.8015C5.45933 7.75267 5.55473 7.72152 5.65342 7.70987C5.75212 7.69822 5.85214 7.7063 5.94769 7.73365C6.04323 7.76099 6.13239 7.80705 6.20998 7.86915L12.4997 12.761L18.7894 7.86915C18.9466 7.75038 19.1443 7.69828 19.3397 7.72414C19.5351 7.74999 19.7125 7.85171 19.8334 8.0073C19.9544 8.16289 20.0093 8.35984 19.9862 8.55557C19.9631 8.75129 19.8638 8.93006 19.71 9.05321Z" fill="#FFCA1D"/>
</svg>
