<svg width="24" height="25" viewBox="0 0 24 25" fill="none" xmlns="http://www.w3.org/2000/svg">
<path d="M19.8748 4.24927H4.12476C3.4288 4.25001 2.76155 4.52681 2.26943 5.01893C1.77731 5.51106 1.50051 6.1783 1.49976 6.87427V18.1243C1.50051 18.8202 1.77731 19.4875 2.26943 19.9796C2.76155 20.4717 3.4288 20.7485 4.12476 20.7493H19.8748C20.5707 20.7485 21.238 20.4717 21.7301 19.9796C22.2222 19.4875 22.499 18.8202 22.4998 18.1243V6.87427C22.499 6.1783 22.2222 5.51106 21.7301 5.01893C21.238 4.52681 20.5707 4.25001 19.8748 4.24927ZM19.2101 8.5913L12.4601 13.8413C12.3285 13.9436 12.1665 13.9992 11.9998 13.9992C11.833 13.9992 11.6711 13.9436 11.5395 13.8413L4.78945 8.5913C4.71015 8.53141 4.64353 8.45636 4.59348 8.3705C4.54344 8.28464 4.51095 8.18969 4.49791 8.09117C4.48488 7.99265 4.49155 7.89252 4.51755 7.7966C4.54354 7.70068 4.58834 7.61089 4.64934 7.53243C4.71034 7.45398 4.78633 7.38843 4.87288 7.33959C4.95943 7.29076 5.05483 7.25961 5.15352 7.24796C5.25222 7.23631 5.35224 7.24439 5.44779 7.27174C5.54333 7.29908 5.63249 7.34514 5.71008 7.40724L11.9998 12.2991L18.2895 7.40724C18.4467 7.28847 18.6444 7.23637 18.8398 7.26223C19.0352 7.28808 19.2126 7.3898 19.3335 7.54539C19.4545 7.70098 19.5094 7.89793 19.4863 8.09366C19.4632 8.28938 19.3639 8.46815 19.2101 8.5913Z" fill="url(#paint0_linear_28_1327)"/>
<defs>
<linearGradient id="paint0_linear_28_1327" x1="11.9998" y1="4.24927" x2="11.9998" y2="20.7493" gradientUnits="userSpaceOnUse">
<stop stop-color="#FFCA1D"/>
<stop offset="1" stop-color="#E68302"/>
</linearGradient>
</defs>
</svg>
