<svg width="24" height="25" viewBox="0 0 24 25" fill="none" xmlns="http://www.w3.org/2000/svg">
<path d="M18.3282 22.9918C17.4132 22.9918 16.1279 22.6608 14.2032 21.5855C11.8627 20.273 10.0524 19.0613 7.72457 16.7396C5.48019 14.4966 4.388 13.0444 2.85941 10.2629C1.13253 7.12222 1.42691 5.47597 1.75597 4.77238C2.14785 3.93144 2.72628 3.42847 3.47394 2.92925C3.89861 2.65102 4.34801 2.41251 4.81644 2.21675C4.86332 2.1966 4.90691 2.17738 4.94582 2.16003C5.17785 2.0555 5.52941 1.89753 5.97472 2.06628C6.27191 2.17785 6.53722 2.40613 6.95254 2.81628C7.80426 3.65628 8.96816 5.52707 9.39754 6.44582C9.68582 7.06503 9.8766 7.47378 9.87707 7.93222C9.87707 8.46894 9.60707 8.88285 9.27941 9.32957C9.21801 9.41347 9.15707 9.49363 9.098 9.57144C8.74129 10.0402 8.663 10.1757 8.71457 10.4175C8.8191 10.9036 9.59863 12.3507 10.8798 13.629C12.1609 14.9072 13.5662 15.6375 14.0541 15.7416C14.3063 15.7955 14.4446 15.714 14.9284 15.3446C14.9977 15.2916 15.069 15.2368 15.1435 15.1819C15.6432 14.8102 16.0379 14.5472 16.562 14.5472H16.5648C17.0209 14.5472 17.4113 14.745 18.0582 15.0713C18.902 15.4969 20.829 16.6458 21.6741 17.4985C22.0852 17.9129 22.3145 18.1772 22.4265 18.474C22.5952 18.9207 22.4363 19.2708 22.3327 19.5052C22.3154 19.5441 22.2962 19.5868 22.276 19.6341C22.0787 20.1017 21.8388 20.5502 21.5593 20.9738C21.061 21.7191 20.5562 22.2961 19.7134 22.6885C19.2806 22.8932 18.8069 22.9969 18.3282 22.9918Z" fill="url(#paint0_linear_28_1321)"/>
<defs>
<linearGradient id="paint0_linear_28_1321" x1="12.0025" y1="1.99219" x2="12.0025" y2="22.992" gradientUnits="userSpaceOnUse">
<stop stop-color="#73E5E4"/>
<stop offset="1" stop-color="#039594"/>
</linearGradient>
</defs>
</svg>
