<svg width="16" height="21" viewBox="0 0 16 21" fill="none" xmlns="http://www.w3.org/2000/svg">
<path d="M7.99953 0C3.8642 0 0.499512 3.21797 0.499512 7.17187C0.499512 9.0548 1.35779 11.5589 3.05045 14.6147C4.40982 17.0681 5.98248 19.2867 6.80043 20.3906C6.93863 20.5792 7.11943 20.7326 7.32793 20.8384C7.53653 20.9441 7.76703 20.9992 8.00093 20.9992C8.23473 20.9992 8.46533 20.9441 8.67393 20.8384C8.88243 20.7326 9.06313 20.5792 9.20143 20.3906C10.0179 19.2867 11.592 17.0681 12.9514 14.6147C14.6412 11.5598 15.4995 9.0558 15.4995 7.17187C15.4995 3.21797 12.1348 0 7.99953 0ZM7.99953 10.5C7.40613 10.5 6.82613 10.3241 6.33283 9.9944C5.83945 9.6648 5.45494 9.1962 5.22787 8.6481C5.00081 8.0999 4.9414 7.49667 5.05716 6.91473C5.17291 6.33279 5.45863 5.79824 5.87819 5.37868C6.29773 4.95912 6.83233 4.6734 7.41423 4.55764C7.99623 4.44189 8.59943 4.5013 9.14753 4.72836C9.69573 4.95542 10.1642 5.33994 10.4939 5.83329C10.8235 6.32664 10.9995 6.90666 10.9995 7.5C10.9986 8.2954 10.6823 9.0579 10.1198 9.6204C9.55743 10.1828 8.79493 10.4991 7.99953 10.5Z" fill="url(#paint0_linear_2003_54)"/>
<defs>
<linearGradient id="paint0_linear_2003_54" x1="7.99952" y1="0" x2="7.99952" y2="20.9992" gradientUnits="userSpaceOnUse">
<stop stop-color="#4B4AEF"/>
<stop offset="1" stop-color="#2B2A89"/>
</linearGradient>
</defs>
</svg>
