<svg width="25" height="26" viewBox="0 0 25 26" fill="none" xmlns="http://www.w3.org/2000/svg">
<path d="M12.5003 11.4639C13.3294 11.4639 14.0014 10.7918 14.0014 9.96277C14.0014 9.13373 13.3294 8.46167 12.5003 8.46167C11.6713 8.46167 10.9992 9.13373 10.9992 9.96277C10.9992 10.7918 11.6713 11.4639 12.5003 11.4639Z" fill="#FFCA1D"/>
<path d="M12.4995 2.46191C8.36417 2.46191 4.99948 5.67988 4.99948 9.63378C4.99948 11.5167 5.85776 14.0208 7.55042 17.0766C8.90979 19.53 10.4825 21.7486 11.3004 22.8525C11.4386 23.0411 11.6194 23.1945 11.8279 23.3003C12.0365 23.406 12.267 23.4611 12.5009 23.4611C12.7347 23.4611 12.9653 23.406 13.1739 23.3003C13.3824 23.1945 13.5631 23.0411 13.7014 22.8525C14.5179 21.7486 16.092 19.53 17.4514 17.0766C19.1412 14.0217 19.9995 11.5177 19.9995 9.63378C19.9995 5.67988 16.6348 2.46191 12.4995 2.46191ZM12.4995 12.9619C11.9061 12.9619 11.3261 12.786 10.8328 12.4563C10.3394 12.1267 9.95491 11.6581 9.72784 11.11C9.50078 10.5618 9.44137 9.95858 9.55713 9.37664C9.67288 8.7947 9.9586 8.26015 10.3782 7.84059C10.7977 7.42103 11.3323 7.13531 11.9142 7.01955C12.4962 6.9038 13.0994 6.96321 13.6475 7.19027C14.1957 7.41733 14.6642 7.80185 14.9939 8.2952C15.3235 8.78855 15.4995 9.36857 15.4995 9.96191C15.4986 10.7573 15.1823 11.5198 14.6198 12.0823C14.0574 12.6447 13.2949 12.961 12.4995 12.9619Z" fill="#FFCA1D"/>
</svg>
