<svg width="21" height="22" viewBox="0 0 21 22" fill="none" xmlns="http://www.w3.org/2000/svg">
<path d="M16.8281 21.4637C15.9131 21.4637 14.6278 21.1327 12.7031 20.0574C10.3626 18.7449 8.5523 17.5332 6.22451 15.2115C3.98013 12.9685 2.88794 11.5163 1.35935 8.73478C-0.367529 5.59415 -0.0731485 3.9479 0.255911 3.24431C0.647791 2.40337 1.22622 1.9004 1.97388 1.40118C2.39855 1.12295 2.84795 0.884437 3.31638 0.688677C3.36326 0.668527 3.40685 0.649307 3.44576 0.631957C3.67779 0.527427 4.02935 0.369457 4.47466 0.538207C4.77185 0.649777 5.03716 0.878057 5.45248 1.28821C6.3042 2.12821 7.4681 3.999 7.89748 4.91775C8.18576 5.53696 8.37654 5.94571 8.37701 6.40415C8.37701 6.94087 8.10701 7.35478 7.77935 7.8015C7.71795 7.8854 7.65701 7.96556 7.59794 8.04337C7.24123 8.51212 7.16294 8.64759 7.21451 8.88947C7.31904 9.37552 8.09857 10.8226 9.3797 12.1009C10.6608 13.3791 12.0661 14.1094 12.554 14.2135C12.8062 14.2674 12.9445 14.1859 13.4283 13.8165C13.4976 13.7635 13.5689 13.7087 13.6434 13.6538C14.1431 13.2821 14.5378 13.0191 15.0619 13.0191H15.0647C15.5208 13.0191 15.9112 13.2169 16.5581 13.5432C17.4019 13.9688 19.3289 15.1177 20.174 15.9704C20.5851 16.3848 20.8144 16.6491 20.9264 16.9459C21.0951 17.3926 20.9362 17.7427 20.8326 17.9771C20.8153 18.016 20.7961 18.0587 20.7759 18.106C20.5786 18.5736 20.3387 19.0221 20.0592 19.4457C19.5609 20.191 19.0561 20.768 18.2133 21.1604C17.7805 21.3651 17.3068 21.4688 16.8281 21.4637Z" fill="#FFCA1D"/>
</svg>
