<svg width="25" height="24" viewBox="0 0 25 24" fill="none" xmlns="http://www.w3.org/2000/svg">
<path d="M10.28 20.69C9.78 20.69 9.43 20.52 9.22 20.36C8.82 20.07 8.2 19.32 8.59 17.64L9.15998 15.18C9.20998 14.97 9.09998 14.59 8.94998 14.43L6.95999 12.44C5.90999 11.39 5.99999 10.48 6.13999 10.03C6.27999 9.58 6.73998 8.78999 8.19998 8.53999L10.75 8.12C10.94 8.08999 11.25 7.86 11.33 7.69L12.74 4.87C13.42 3.51 14.32 3.31 14.8 3.31C15.28 3.31 16.18 3.51 16.86 4.87L18.27 7.69C18.36 7.86 18.66 8.08999 18.85 8.12L21.4 8.53999C22.86 8.77999 23.32 9.58 23.46 10.03C23.6 10.48 23.69 11.39 22.64 12.44L20.65 14.43C20.5 14.58 20.39 14.97 20.44 15.18L21.01 17.64C21.4 19.33 20.78 20.07 20.38 20.36C19.98 20.65 19.09 21.02 17.59 20.13L15.2 18.71C15 18.59 14.58 18.59 14.38 18.71L11.99 20.13C11.3 20.55 10.72 20.69 10.28 20.69ZM14.8 4.81C14.64 4.81 14.35 4.99999 14.08 5.53999L12.67 8.36C12.37 8.97 11.66 9.49001 10.99 9.60001L8.44 10.02C7.87 10.12 7.61 10.33 7.56 10.49C7.51 10.65 7.59998 10.97 8.00998 11.38L10 13.37C10.51 13.88 10.78 14.81 10.62 15.51L10.05 17.97C9.87999 18.68 9.98998 19.06 10.1 19.15C10.21 19.23 10.61 19.22 11.23 18.84L13.63 17.42C14.3 17.02 15.31 17.02 15.97 17.42L18.36 18.84C18.99 19.21 19.39 19.23 19.5 19.15C19.61 19.07 19.72 18.69 19.55 17.97L18.98 15.51C18.82 14.8 19.08 13.88 19.6 13.37L21.59 11.38C22 10.97 22.09 10.64 22.04 10.49C21.99 10.34 21.73 10.12 21.16 10.02L18.61 9.60001C17.94 9.49001 17.23 8.97 16.93 8.36L15.52 5.53999C15.25 4.99999 14.96 4.81 14.8 4.81Z" fill="#FD9B79"/>
<path d="M8.7998 5.75H2.7998C2.3898 5.75 2.0498 5.41 2.0498 5C2.0498 4.59 2.3898 4.25 2.7998 4.25H8.7998C9.2098 4.25 9.5498 4.59 9.5498 5C9.5498 5.41 9.2098 5.75 8.7998 5.75Z" fill="#FD9B79"/>
<path d="M5.7998 19.75H2.7998C2.3898 19.75 2.0498 19.41 2.0498 19C2.0498 18.59 2.3898 18.25 2.7998 18.25H5.7998C6.2098 18.25 6.5498 18.59 6.5498 19C6.5498 19.41 6.2098 19.75 5.7998 19.75Z" fill="#FD9B79"/>
<path d="M3.7998 12.75H2.7998C2.3898 12.75 2.0498 12.41 2.0498 12C2.0498 11.59 2.3898 11.25 2.7998 11.25H3.7998C4.2098 11.25 4.5498 11.59 4.5498 12C4.5498 12.41 4.2098 12.75 3.7998 12.75Z" fill="#FD9B79"/>
</svg>
