<svg width="17" height="18" viewBox="0 0 17 18" fill="none" xmlns="http://www.w3.org/2000/svg">
<g clip-path="url(#clip0_23_1380)">
<mask id="mask0_23_1380" style="mask-type:luminance" maskUnits="userSpaceOnUse" x="0" y="0" width="17" height="17">
<path d="M16.4035 0.820312H0.400024V16.8238H16.4035V0.820312Z" fill="white"/>
</mask>
<g mask="url(#mask0_23_1380)">
<path d="M15.2051 7.38413C14.7675 7.05968 14.2299 6.82151 13.6623 6.69304C13.5691 6.67207 13.4837 6.62503 13.4163 6.55739C13.3488 6.48976 13.302 6.40433 13.2812 6.31108C13.0374 5.22491 12.5126 4.29345 11.7412 3.58767C10.8445 2.76593 9.6586 2.31396 8.40176 2.31396C7.29683 2.31396 6.2763 2.66029 5.45206 3.31574C4.89344 3.76067 4.4438 4.32727 4.1374 4.97235C4.10418 5.04293 4.05491 5.10477 3.99352 5.15291C3.93214 5.20105 3.86035 5.23416 3.78388 5.2496C2.94776 5.41839 2.19291 5.7769 1.61653 6.28483C0.820741 6.9881 0.400024 7.923 0.400024 8.99042C0.400024 10.0694 0.852935 11.0533 1.67499 11.7647C2.46016 12.4427 3.51726 12.8162 4.65095 12.8162H7.90165V8.02239L6.75484 9.16921C6.70696 9.21709 6.64986 9.25473 6.587 9.27988C6.52414 9.30503 6.45682 9.31716 6.38914 9.31552C6.32145 9.31388 6.2548 9.29852 6.19323 9.27036C6.13165 9.2422 6.07644 9.20183 6.03093 9.1517C5.84964 8.95259 5.86715 8.64221 6.0575 8.45186L8.04825 6.46143C8.14203 6.36771 8.26919 6.31506 8.40176 6.31506C8.53434 6.31506 8.6615 6.36771 8.75528 6.46143L10.746 8.45124C10.9423 8.64784 10.9535 8.97011 10.7582 9.16734C10.7118 9.21415 10.6567 9.25133 10.5959 9.27677C10.5352 9.30222 10.47 9.3154 10.4041 9.31558C10.3383 9.31575 10.273 9.3029 10.2121 9.27778C10.1512 9.25268 10.0959 9.21578 10.0493 9.16921L8.90187 8.02239V12.8162H12.7777C13.7573 12.8162 14.6503 12.5411 15.2923 12.042C16.0193 11.4762 16.4035 10.6667 16.4035 9.70307C16.4035 8.76724 15.989 7.96488 15.2051 7.38413Z" fill="#00173A"/>
<path d="M7.90112 14.8313C7.90112 14.964 7.95385 15.0913 8.04771 15.1852C8.14156 15.279 8.26886 15.3317 8.4016 15.3317C8.53433 15.3317 8.66163 15.279 8.75549 15.1852C8.84934 15.0913 8.90207 14.964 8.90207 14.8313V12.8162H7.90112V14.8313Z" fill="#00173A"/>
</g>
</g>
<defs>
<clipPath id="clip0_23_1380">
<rect width="16" height="17" fill="white" transform="translate(0.400024 0.322021)"/>
</clipPath>
</defs>
</svg>
